# xmcd
#
# Track frame offsets: 
#        150
#        11772
#        24154
#        37283
#        53078
#        64748
#        80652
#        92160
#        111791
#        124337
#        139118
#        155275
#        165820
#        183053
#        201720
#        223386
#        239010
#        250369
#
# Disc length: 3488 seconds
#
# Revision: 0
# Processed by: cddbd v1.5.2PL0 Copyright (c) Steve Scherf et al.
# Submitted via: ExactAudioCopy v0.99pb4
#
DISCID=040d9e12
DTITLE=Verzamel - Country Classics CD2
DYEAR=2008
DGENRE=Country
TTITLE0=Johnny Cash - A Thing Called Love
TTITLE1=Charlie Rich - The Most Beautiful Girl
TTITLE2=The Tumbleweeds - Somewhere In Between
TTITLE3=The Dirt Band - An American Dream
TTITLE4=Freddy Fender - Before The Next Teardrop Falls
TTITLE5=Willie Nelson - Always On My Mind
TTITLE6=Christal Gayle - Don't It Make My Brown Eyes Blue
TTITLE7=Kenny Roggers - Coward Of The Country
TTITLE8=Roy Orbison - Crying
TTITLE9=Dan Fogelberg - Longer
TTITLE10=Alabama - Feels So Right
TTITLE11=Jim Reeves - He'll Have To Go
TTITLE12=Clint Back - Desperado
TTITLE13=Dave Loggings - Please Come To Boston
TTITLE14=Michael Murphey - Wildfire
TTITLE15=Kris Kristofferson - Why Me
TTITLE16=Don Gibson - Oh Lonesome Me
TTITLE17=Hank Locklin - Send Me The Pillow You Dream On
EXTD=
EXTT0=
EXTT1=
EXTT2=
EXTT3=
EXTT4=
EXTT5=
EXTT6=
EXTT7=
EXTT8=
EXTT9=
EXTT10=
EXTT11=
EXTT12=
EXTT13=
EXTT14=
EXTT15=
EXTT16=
EXTT17=
PLAYORDER=
